<svg width="254" height="50" viewBox="0 0 254 50" fill="none" xmlns="http://www.w3.org/2000/svg">
<path d="M51.7838 3.78809V49.9024H43.255V46.3344H47.7515V7.35602H43.255V3.78809H51.7838Z" fill="#1F40FF"/>
<path d="M0 9.50684V50.0004H8.52882V46.8479H4.00781V12.6349H8.52882V9.50684H0Z" fill="#1F40FF"/>
<path d="M21.4807 0V3.88562H19.4768V2.27272H10.5326V3.88562H8.52867V0H21.4807Z" fill="#1F40FF"/>
<path d="M29.203 12.6338C21.2607 12.6338 14.8336 19.061 14.8336 27.0033C14.8336 34.9456 21.2607 41.3727 29.203 41.3727C37.1453 41.3727 43.5725 34.9456 43.5725 27.0033C43.5725 19.061 37.1453 12.6338 29.203 12.6338ZM29.203 37.7804C25.7084 37.7804 22.5804 36.1186 20.6253 33.5037L29.203 27.3454L20.8453 20.1851C22.8247 17.7657 25.8306 16.2262 29.203 16.2262C35.1659 16.2262 39.9801 21.0404 39.9801 27.0033C39.9801 32.9661 35.1659 37.7804 29.203 37.7804Z" fill="#1F40FF"/>
<path d="M74.0225 19.0133C72.6784 19.0133 71.6031 19.3554 70.8211 20.0641C70.0147 20.7728 69.6237 21.6037 69.6481 22.5568C69.6481 24.2674 70.6012 25.3182 72.5073 25.7337L76.0264 26.4668C78.1281 26.8823 79.7654 27.7376 80.914 29.0084C82.0626 30.2791 82.6246 31.8676 82.6246 33.7737C82.6246 35.6799 81.8671 37.3417 80.3275 38.7591C78.7879 40.1765 76.6129 40.8852 73.8514 40.9096C71.0899 40.9096 68.8905 40.1765 67.2776 38.6858C65.6647 37.195 64.785 35.46 64.565 33.4805L68.4262 32.3808C68.5728 33.7737 69.1105 34.9468 70.0636 35.8998C71.0166 36.8529 72.263 37.3172 73.8025 37.3172C75.3421 37.3172 76.5152 36.9995 77.2727 36.3642C78.0303 35.7288 78.4213 34.9468 78.4213 34.0181C78.4213 33.1139 78.128 32.3563 77.566 31.7454C77.0039 31.1589 76.1975 30.7434 75.1466 30.4991L71.7253 29.7659C69.8192 29.3749 68.304 28.5685 67.1799 27.371C66.0802 26.1736 65.5181 24.6095 65.5181 22.6789C65.5181 20.7484 66.3246 19.0621 67.9619 17.5959C69.5748 16.1296 71.6031 15.4209 74.0469 15.4209C76.4907 15.4209 78.3969 16.0563 79.7654 17.3026C81.1339 18.5489 81.9892 19.9908 82.3558 21.6281L78.6168 22.8256C78.4702 21.8725 77.9814 20.9927 77.1994 20.2107C76.4174 19.4287 75.3666 19.0133 74.0225 19.0133Z" fill="#1F40FF"/>
<path d="M91.5688 18.499V23.6065H95.2833V27.1989H91.5688V34.9457C91.5688 35.6789 91.7643 36.2165 92.082 36.5586C92.6196 37.0718 93.5971 37.194 95.0634 36.9007V40.2243C94.4769 40.4931 93.646 40.6153 92.6196 40.5909C91.0556 40.5909 89.8337 40.151 88.9295 39.2712C88.0253 38.3915 87.5854 37.1696 87.5854 35.6055V27.1989H84.5062V23.6065H85.4104C86.3146 23.6065 86.9989 23.3622 87.4632 22.8978C87.9275 22.4091 88.1719 21.7981 88.1719 21.0161V18.499H91.5688Z" fill="#1F40FF"/>
<path d="M106.329 23.0947C108.846 23.0947 110.899 23.9256 112.537 25.5874C114.149 27.2492 114.956 29.3753 114.956 31.9657C114.956 34.5317 114.149 36.6822 112.537 38.3684C110.924 40.0546 108.846 40.9099 106.354 40.9099C103.837 40.9099 101.759 40.0546 100.098 38.3684C98.4603 36.6822 97.6539 34.5317 97.6539 31.9657C97.6539 29.3997 98.4603 27.2736 100.098 25.5874C101.735 23.9256 103.812 23.0947 106.329 23.0947ZM102.981 35.8513C103.886 36.8288 105.01 37.2931 106.305 37.2931C107.6 37.2931 108.724 36.8288 109.628 35.8757C110.533 34.9227 110.973 33.6275 110.973 31.9657C110.973 30.3039 110.533 29.0087 109.628 28.0556C108.724 27.127 107.6 26.6627 106.305 26.6627C105.01 26.6627 103.886 27.127 102.981 28.0556C102.077 28.9843 101.613 30.2795 101.613 31.9412C101.637 33.603 102.077 34.8982 102.981 35.8513Z" fill="#1F40FF"/>
<path d="M127.37 27.2479C124.364 27.2479 122.873 28.9097 122.873 32.2577V40.371H118.89V23.6067H122.776V26.1238C123.167 25.2684 123.802 24.6086 124.682 24.1199C125.562 23.6311 126.539 23.3867 127.639 23.3867C128.005 23.3867 128.347 23.4112 128.69 23.4845V27.3457C128.201 27.2723 127.785 27.2479 127.37 27.2479Z" fill="#1F40FF"/>
<path d="M137.732 47.1411H133.455L137.463 38.3679L130.303 23.6074H134.824L139.638 34.189L144.159 23.6074H148.387L137.732 47.1411Z" fill="#1F40FF"/>
<path d="M170.454 15.957L162.341 28.176L170.43 40.3705H165.469L159.775 31.4506L154.032 40.3705H149.193L157.356 28.1515L149.267 15.957H154.227L159.897 24.9013L165.616 15.957H170.454Z" fill="#1F40FF"/>
<path d="M177.492 46.9205H173.509V23.6312H177.395V25.9284C177.835 25.1708 178.519 24.511 179.447 24.0222C180.376 23.5335 181.476 23.2646 182.698 23.2646C185.093 23.2646 186.999 24.0955 188.367 25.7329C189.736 27.3702 190.444 29.4719 190.444 32.0134C190.444 34.5549 189.711 36.6566 188.269 38.3184C186.828 39.9802 184.922 40.8355 182.551 40.8355C181.402 40.8355 180.4 40.6155 179.496 40.1757C178.592 39.7358 177.932 39.1737 177.468 38.4894V46.9205H177.492ZM185.215 28.2255C184.384 27.2725 183.309 26.8081 181.965 26.8081C180.62 26.8081 179.545 27.2725 178.714 28.2255C177.883 29.1786 177.468 30.4249 177.468 31.989C177.468 33.553 177.883 34.8238 178.714 35.7768C179.57 36.7299 180.645 37.2187 181.965 37.2187C183.284 37.2187 184.359 36.7299 185.215 35.7768C186.046 34.8238 186.461 33.553 186.461 31.989C186.461 30.4249 186.046 29.1786 185.215 28.2255Z" fill="#1F40FF"/>
<path d="M202.761 27.2479C199.755 27.2479 198.265 28.9097 198.265 32.2577V40.371H194.281V23.6067H198.167V26.1238C198.558 25.2684 199.193 24.6086 200.073 24.1199C200.953 23.6311 201.93 23.3867 203.03 23.3867C203.397 23.3867 203.739 23.4112 204.081 23.4845V27.3457C203.617 27.2723 203.177 27.2479 202.761 27.2479Z" fill="#1F40FF"/>
<path d="M214.516 40.8855C212.121 40.8855 210.092 40.0791 208.431 38.4417C206.769 36.8044 205.938 34.6539 205.938 31.9657C205.938 29.2775 206.744 27.1514 208.357 25.5141C209.97 23.8768 211.974 23.0703 214.369 23.0703C216.764 23.0703 218.67 23.8523 220.136 25.4163C221.603 26.9804 222.311 29.1065 222.311 31.7702C222.311 32.4789 222.263 32.8943 222.189 33.041H209.946C209.995 34.2873 210.459 35.3381 211.339 36.1446C212.219 36.9755 213.294 37.3909 214.54 37.3909C216.691 37.3909 218.108 36.4134 218.743 34.4828L222.116 35.5336C221.627 37.0732 220.747 38.344 219.428 39.3459C218.084 40.3968 216.446 40.8855 214.516 40.8855ZM217.131 27.4203C216.446 26.736 215.469 26.3939 214.198 26.3939C212.952 26.3939 211.95 26.7604 211.217 27.4936C210.483 28.2023 210.068 29.0332 209.995 30.0107H218.23C218.206 28.9598 217.839 28.1045 217.131 27.4203Z" fill="#1F40FF"/>
<path d="M231.573 37.8063C232.477 37.8063 233.137 37.6108 233.577 37.2443C234.017 36.8777 234.237 36.4134 234.237 35.8269C234.237 34.8493 233.504 34.214 232.062 33.9207L229.569 33.3831C228.128 33.0654 227.028 32.4789 226.246 31.5991C225.464 30.7193 225.073 29.6196 225.073 28.2756C225.073 26.9315 225.684 25.734 226.93 24.6832C228.176 23.6324 229.667 23.0947 231.475 23.0947C234.408 23.0947 236.461 24.17 237.561 26.3205C237.829 26.8093 238 27.2736 238.049 27.7624L234.555 28.7399C234.457 28.0801 234.164 27.4935 233.675 26.9803C233.162 26.4672 232.502 26.1983 231.671 26.1983C230.84 26.1983 230.205 26.3938 229.716 26.7604C229.252 27.1514 229.007 27.5913 229.032 28.1289C229.032 29.082 229.52 29.6441 230.498 29.8885L233.04 30.4016C234.701 30.7438 235.997 31.3792 236.876 32.3078C237.756 33.2364 238.22 34.3606 238.22 35.7047C238.22 37.0488 237.658 38.2462 236.534 39.3215C235.41 40.3723 233.822 40.9099 231.769 40.9344C228.714 40.9344 226.563 39.7858 225.317 37.5131C225.048 36.9754 224.877 36.4622 224.828 35.9246L228.299 34.9471C228.372 35.7535 228.714 36.4378 229.325 36.9999C229.936 37.5131 230.669 37.8063 231.573 37.8063Z" fill="#1F40FF"/>
<path d="M247.287 37.8063C248.191 37.8063 248.851 37.6108 249.291 37.2443C249.731 36.8777 249.95 36.4134 249.95 35.8269C249.95 34.8493 249.217 34.214 247.776 33.9207L245.283 33.3831C243.841 33.0654 242.741 32.4789 241.959 31.5991C241.177 30.7193 240.786 29.6196 240.786 28.2756C240.786 26.9315 241.397 25.734 242.644 24.6832C243.865 23.6324 245.381 23.0947 247.189 23.0947C250.146 23.0947 252.174 24.17 253.274 26.3205C253.543 26.8093 253.714 27.2736 253.763 27.7624L250.268 28.7399C250.17 28.0801 249.877 27.4935 249.388 26.9803C248.875 26.4672 248.215 26.1983 247.385 26.1983C246.554 26.1983 245.918 26.3938 245.429 26.7604C244.965 27.1514 244.721 27.5913 244.745 28.1289C244.745 29.082 245.234 29.6441 246.212 29.8885L248.753 30.4016C250.415 30.7438 251.71 31.3792 252.59 32.3078C253.47 33.2364 253.934 34.3606 253.934 35.7047C253.934 37.0488 253.372 38.2462 252.248 39.3215C251.124 40.3723 249.535 40.9099 247.482 40.9344C244.428 40.9344 242.277 39.7858 241.031 37.5131C240.762 36.9754 240.591 36.4622 240.542 35.9246L244.012 34.9471C244.085 35.7535 244.428 36.4378 245.038 36.9999C245.649 37.5131 246.407 37.8063 247.287 37.8063Z" fill="#1F40FF"/>
</svg>
